<?xml version="1.0" standalone="no"?><!DOCTYPE svg PUBLIC "-//W3C//DTD SVG 1.1//EN" "http://www.w3.org/Graphics/SVG/1.1/DTD/svg11.dtd"><svg class="icon" height="512" viewBox="0 0 1024 1024" version="1.1" xmlns="http://www.w3.org/2000/svg"><path d="M512 10.6496C234.018133 10.6496 9.0112 235.656533 9.0112 513.365333c0 277.572267 225.143467 502.715733 502.9888 502.715734 277.572267 0 502.715733-225.143467 502.715733-502.715734C1014.715733 235.656533 789.572267 10.6496 512 10.6496z m0 953.275733C262.826667 963.925333 61.0304 762.129067 61.0304 513.365333S262.826667 62.805333 511.863467 62.805333c248.763733 0 450.56 201.796267 450.56 450.56C962.56 762.129067 760.763733 963.925333 512 963.925333z" fill="" /><path d="M644.437333 145.271467H379.153067c-33.1776 0-60.347733 24.712533-60.347734 54.8864v625.4592c0 30.3104 27.170133 54.8864 60.347734 54.8864H644.437333c33.1776 0 60.347733-24.712533 60.347734-55.022934v-625.322666c0-30.173867-27.170133-54.8864-60.347734-54.8864m-168.7552 43.963733h72.362667c6.690133 0 12.151467 4.9152 12.151467 10.922667s-5.461333 10.922667-12.151467 10.922666h-72.362667c-6.690133 0-12.151467-4.9152-12.151466-10.922666 0.136533-6.007467 5.461333-10.922667 12.151466-10.922667m36.181334 669.422933c-19.933867 0-36.181333-14.7456-36.181334-32.904533s16.110933-32.904533 36.181334-32.904533c19.933867 0 36.181333 14.7456 36.181333 32.904533s-16.110933 32.904533-36.181333 32.904533m168.891733-87.790933H342.971733V255.1808h337.646934v515.6864z m0 0" fill="" /></svg>